<?xml version="1.0" encoding="utf-8"?>
<!-- Generator: Adobe Illustrator 19.1.0, SVG Export Plug-In . SVG Version: 6.00 Build 0)  -->
<svg version="1.0" id="Layer_1" xmlns="http://www.w3.org/2000/svg" xmlns:xlink="http://www.w3.org/1999/xlink" x="0px" y="0px"
	 viewBox="0 0 100 100" style="enable-background:new 0 0 100 100;" xml:space="preserve">
<style type="text/css">
	.st0{opacity:0.75;}
</style>
<path class="st0" d="M74,53.1l-1.9,0.7c-1.4,0.5-3-0.2-3.5-1.7L53.3,9.7c-0.5-1.4,0.2-3,1.7-3.5l1.9-0.7c1.4-0.5,3,0.2,3.5,1.7
	l15.2,42.5C76.2,51,75.5,52.6,74,53.1z"/>
<path class="st0" d="M51.7,25.4h-3.2c-1.3,0-2.3,1-2.3,2.3v26.6c0,1.3,1,2.3,2.3,2.3h3.2c1.3,0,2.3-1,2.3-2.3V27.7
	C54,26.5,53,25.4,51.7,25.4z"/>
<path class="st0" d="M28.1,53.1l1.9,0.7c1.4,0.5,3-0.2,3.5-1.7L48.9,9.7c0.5-1.4-0.2-3-1.7-3.5l-1.9-0.7c-1.4-0.5-3,0.2-3.5,1.7
	L26.5,49.5C25.9,51,26.7,52.6,28.1,53.1z"/>
<path class="st0" d="M50.3,53.3c-16.3-0.1-24.5-6.7-28-6.7S6,61.5,5.7,71S4.8,97.7,6.5,97.2s3.6-12.5,2.6-17.7s-2-8.2-0.2-12.5
	s8.3-13,13.4-12.7c5.1,0.3,23.1,3.8,28.1,4.3L50.3,53.3z"/>
<path class="st0" d="M50.3,53.3c16.3-0.1,24.5-6.7,28-6.7C82,46.7,94.7,61.5,95,71s0.8,26.7-0.8,26.2c-1.6-0.5-3.6-12.5-2.6-17.7
	s2-8.2,0.2-12.5c-1.8-4.3-8.3-13-13.4-12.7c-5.1,0.3-23.1,3.8-28.1,4.3L50.3,53.3z"/>
<path class="st0" d="M56.4,4H46.2C43.2,4,40,6.2,40,9.3v25.1c0,3.1,5,5.6,5,5.6V21.9c0-1.7,0.7-2.9,2.4-2.9h5.7
	c1.7,0,1.8,1.1,1.8,2.9L56.4,40c3.1,0,4.6-2.5,4.6-5.6V9.3C61,6.2,59.5,4,56.4,4z"/>
</svg>
